<?xml version="1.0" standalone="no"?>
<!DOCTYPE svg PUBLIC "-//W3C//DTD SVG 20010904//EN"
 "http://www.w3.org/TR/2001/REC-SVG-20010904/DTD/svg10.dtd">
<svg version="1.0" xmlns="http://www.w3.org/2000/svg"
 width="960.000000pt" height="960.000000pt" viewBox="0 0 960.000000 960.000000"
 preserveAspectRatio="xMidYMid meet">
<metadata>
Created by potrace 1.14, written by Peter Selinger 2001-2017
</metadata>
<g transform="translate(0.000000,960.000000) scale(0.100000,-0.100000)"
fill="#000000" stroke="none">
<path d="M3810 6310 c-222 -168 -244 -189 -261 -247 -21 -78 -5 -113 148 -316
117 -156 195 -257 232 -303 5 -6 59 -78 120 -160 61 -82 119 -158 130 -169 10
-11 94 -121 187 -245 93 -124 175 -231 182 -239 7 -8 21 -26 30 -40 9 -14 22
-33 29 -41 10 -13 98 -125 121 -155 10 -13 75 -99 79 -104 4 -5 64 27 73 39 5
5 146 115 283 219 65 50 89 79 106 134 15 44 3 93 -35 144 -13 17 -24 35 -24
40 0 5 -8 15 -17 24 -10 8 -85 104 -168 214 -82 110 -155 207 -162 215 -7 8
-42 53 -77 100 -36 47 -69 90 -73 95 -29 36 -145 191 -185 245 -26 36 -54 72
-62 80 -7 8 -58 74 -112 145 -54 72 -136 180 -182 240 -47 61 -103 136 -126
167 -22 32 -43 58 -46 58 -3 0 -88 -63 -190 -140z"/>
<path d="M4884 6383 c-49 -37 -91 -70 -94 -73 -3 -3 -23 -19 -45 -35 -22 -15
-59 -48 -81 -72 -81 -86 -105 -234 -56 -345 15 -35 175 -262 202 -288 3 -3 39
-50 80 -105 41 -55 77 -102 80 -105 7 -7 122 -158 182 -240 26 -36 54 -72 61
-80 22 -24 275 -356 461 -605 98 -130 110 -145 123 -145 5 0 27 15 49 33 37
32 100 79 160 122 103 73 155 145 174 243 19 93 2 168 -58 257 -25 39 -49 72
-52 75 -4 3 -64 82 -135 175 -71 94 -138 182 -149 197 -30 37 -68 87 -91 118
-130 176 -178 238 -194 255 -10 11 -94 121 -187 245 -93 124 -179 236 -191
250 -13 14 -23 28 -23 31 0 3 -8 15 -17 26 -10 11 -36 46 -58 77 -22 30 -43
56 -46 56 -4 0 -46 -30 -95 -67z"/>
<path d="M3584 5602 c-10 -9 -71 -56 -134 -103 -174 -130 -218 -190 -228 -314
-7 -88 16 -156 85 -251 31 -43 60 -81 63 -84 3 -3 44 -57 92 -120 191 -254
299 -396 318 -419 l20 -23 134 100 c192 144 223 179 251 287 30 115 6 195
-102 338 -42 56 -135 179 -206 272 -71 94 -157 207 -191 252 -33 45 -66 82
-72 83 -5 0 -19 -8 -30 -18z"/>
<path d="M4875 4066 c-46 -20 -67 -51 -73 -104 -4 -43 -1 -53 26 -84 19 -21
48 -39 74 -47 68 -20 88 -37 88 -74 0 -43 -15 -57 -61 -57 -28 0 -43 6 -58 26
-19 24 -21 25 -50 9 -31 -15 -31 -16 -15 -46 38 -75 188 -79 238 -7 21 29 21
117 0 146 -16 24 -72 55 -116 66 -35 8 -58 32 -58 61 0 55 73 75 108 30 17
-22 24 -24 46 -15 32 12 34 42 4 71 -43 40 -98 49 -153 25z"/>
<path d="M5204 4066 c-17 -8 -40 -26 -52 -41 -20 -25 -22 -39 -22 -167 0 -102
4 -146 14 -167 49 -93 203 -77 232 24 14 49 11 55 -27 55 -23 0 -32 -6 -40
-27 -12 -33 -26 -43 -61 -43 -40 0 -48 25 -48 159 0 113 1 121 22 135 12 9 30
16 39 16 20 0 49 -31 49 -53 0 -13 9 -17 34 -17 44 0 47 6 31 52 -26 77 -95
107 -171 74z"/>
<path d="M5648 3980 l-3 -95 -60 0 -60 0 0 90 0 90 -37 3 -36 3 1 -218 2 -218
35 0 35 0 0 90 0 90 63 3 62 3 0 -96 0 -95 35 0 35 0 0 219 0 219 -35 4 -34 4
-3 -96z"/>
<path d="M5871 4070 c-33 -14 -59 -47 -71 -89 -14 -49 -12 -228 3 -271 24 -69
116 -100 191 -65 57 27 66 56 66 214 l0 141 -32 35 c-27 30 -42 36 -83 40 -27
3 -61 0 -74 -5z m99 -80 c18 -18 20 -33 20 -137 0 -94 -3 -120 -17 -135 -20
-22 -76 -24 -94 -2 -15 18 -25 174 -15 228 12 64 65 87 106 46z"/>
<path d="M6204 4060 c-23 -12 -47 -33 -54 -48 -19 -40 -24 -237 -8 -292 30
-98 159 -124 233 -46 18 18 20 37 23 171 3 143 2 152 -19 179 -24 31 -74 56
-111 56 -13 0 -41 -9 -64 -20z m104 -66 c21 -14 22 -22 22 -139 0 -137 -7
-155 -60 -155 -58 0 -76 49 -67 187 3 61 10 89 22 104 22 23 53 24 83 3z"/>
<path d="M2915 4018 c-3 -29 -4 -80 -1 -113 2 -33 4 -106 5 -162 1 -96 2 -103
21 -103 16 0 20 7 21 38 1 20 2 81 3 134 2 97 10 128 22 92 3 -10 12 -32 19
-49 7 -16 20 -55 29 -86 9 -32 23 -60 32 -63 9 -4 18 -5 19 -4 8 10 36 83 55
140 12 37 26 70 31 73 10 7 11 -7 17 -212 2 -56 4 -63 22 -63 19 0 20 7 21
193 1 105 2 199 3 207 1 17 -21 29 -45 23 -17 -5 -49 -84 -49 -122 0 -13 -3
-21 -6 -18 -4 4 -17 -21 -28 -55 -12 -34 -26 -63 -32 -65 -5 -2 -30 54 -53
124 -44 129 -52 143 -83 143 -13 0 -18 -12 -23 -52z"/>
<path d="M3393 3941 c-23 -69 -51 -160 -63 -201 -13 -41 -25 -81 -27 -87 -4
-9 5 -13 26 -13 17 0 30 3 30 8 -1 4 -1 9 1 12 1 3 4 16 6 30 2 13 10 28 17
32 10 7 125 3 132 -4 2 -2 10 -20 18 -40 13 -31 21 -38 43 -38 21 0 25 3 19
18 -4 9 -18 53 -31 97 -116 377 -112 373 -171 186z m77 -21 c0 -9 9 -43 19
-76 14 -40 16 -61 9 -65 -11 -7 -97 -4 -104 4 -2 2 3 23 11 46 8 24 16 56 17
71 1 16 6 26 10 24 4 -3 8 5 8 17 0 18 2 19 15 9 8 -7 15 -20 15 -30z"/>
<path d="M3730 4053 c-51 -26 -59 -53 -61 -194 -1 -151 3 -168 45 -197 36 -25
110 -30 136 -9 26 20 50 60 50 83 0 31 -41 24 -60 -11 -26 -47 -76 -53 -105
-12 -11 16 -15 52 -15 142 1 135 8 153 60 157 28 3 37 -2 54 -29 12 -17 31
-33 44 -36 19 -4 22 0 22 24 0 73 -97 120 -170 82z"/>
<path d="M3996 4062 c-3 -5 -4 -100 -3 -213 l2 -204 24 0 c23 0 23 3 23 80 0
86 8 105 43 105 28 0 35 -9 70 -95 15 -38 33 -76 38 -82 9 -13 57 -18 57 -7 0
5 -54 124 -71 157 -7 13 -2 25 26 52 31 32 35 41 35 90 0 60 -15 86 -62 111
-29 15 -173 20 -182 6z m178 -68 c16 -16 21 -71 8 -90 -21 -32 -106 -46 -130
-22 -7 7 -12 38 -12 70 l0 58 59 0 c41 0 65 -5 75 -16z"/>
<path d="M4387 4049 c-49 -38 -58 -68 -56 -196 1 -73 6 -128 15 -149 27 -64
121 -84 185 -41 49 33 62 86 55 220 -7 141 -29 173 -123 183 -39 4 -53 0 -76
-17z m123 -54 c18 -16 20 -30 20 -142 0 -110 -2 -125 -20 -143 -28 -28 -81
-26 -106 3 -17 19 -19 36 -17 132 1 60 4 119 7 131 10 40 80 52 116 19z"/>
<path d="M6480 3850 l0 -220 120 0 120 0 0 35 0 35 -85 0 -85 0 0 185 0 185
-35 0 -35 0 0 -220z"/>
</g>
</svg>
